<?xml version="1.0" encoding="UTF-8"?>
<svg version="1.1" xmlns="http://www.w3.org/2000/svg" width="2000" height="2000">
<path d="M0 0 C1.28430908 0.00060425 2.56861816 0.0012085 3.8918457 0.00183105 C26.12818888 0.03003405 48.26198297 0.51706137 70.4375 2.1875 C71.27659912 2.25066406 72.11569824 2.31382813 72.98022461 2.37890625 C126.39824845 6.46602369 179.36752011 14.52504263 231.4375 27.1875 C232.44728912 27.43212982 232.44728912 27.43212982 233.47747803 27.68170166 C316.42508954 47.81123744 397.37080895 78.83455853 477.4375 123.1875 C478.30439453 123.67186523 479.17128906 124.15623047 480.06445312 124.65527344 C499.94594242 135.80231069 519.40829775 147.64167711 538.4375 160.1875 C539.04932129 160.58855957 539.66114258 160.98961914 540.29150391 161.40283203 C574.79300073 184.03085742 607.46194678 209.0595265 638.83837891 235.82666016 C640.49599996 237.23728302 642.15979828 238.64037789 643.82421875 240.04296875 C651.89386907 246.86886478 659.65677526 253.97343434 667.33813477 261.23168945 C668.85486168 262.64470251 670.38587029 264.04243847 671.92553711 265.43041992 C680.67406985 273.33015242 689.01629214 281.61383334 697.33911133 289.95874023 C699.75944526 292.3844663 702.1851222 294.80475798 704.61132812 297.22460938 C706.17480012 298.78874175 707.73796212 300.35318406 709.30078125 301.91796875 C710.01446365 302.62962692 710.72814606 303.3412851 711.4634552 304.07450867 C715.42585006 308.05523127 719.21956523 312.1288992 722.8787384 316.390625 C725.43758683 319.34035816 728.13331208 322.16002799 730.8125 325 C735.53946376 330.04660944 740.01259143 335.22084148 744.3359375 340.62109375 C746.41751427 343.16309363 748.5878838 345.58279335 750.8125 348 C754.87376167 352.45679324 758.59163522 357.11712968 762.28295898 361.87866211 C765.23394135 365.6790842 768.26263535 369.3915058 771.375 373.0625 C776.78257705 379.50901311 781.80812813 386.21418672 786.80615234 392.98095703 C788.50721021 395.28178927 790.21615023 397.57662625 791.92578125 399.87109375 C799.32549654 409.82687169 806.5032909 419.90251419 813.4375 430.1875 C813.83855957 430.77885742 814.23961914 431.37021484 814.65283203 431.97949219 C825.76574982 448.3741114 836.42136143 465.10012397 846.4375 482.1875 C847.0567334 483.2388916 847.0567334 483.2388916 847.68847656 484.31152344 C871.50063798 524.79748553 892.6915887 566.69907069 910.4375 610.1875 C910.72260437 610.88534607 911.00770874 611.58319214 911.30145264 612.30218506 C946.40879838 698.43390442 968.91791984 789.02983541 981.4375 913.1875 C981.49701843 913.9783197 981.55653687 914.7691394 981.61785889 915.58392334 C985.05720669 961.81496084 984.91631203 1008.96462465 981.4375 1055.1875 C981.3766925 1056.0092572 981.31588501 1056.8310144 981.25323486 1057.67767334 C974.42572659 1149.06377297 955.03176256 1239.29955703 897.4375 1388.1875 C896.99697296 1389.15302795 896.99697296 1389.15302795 896.54754639 1390.13806152 C885.37212414 1414.61495826 873.56361403 1438.69060783 860.4375 1462.1875 C859.95168457 1463.05729492 859.46586914 1463.92708984 858.96533203 1464.82324219 C847.22575742 1485.76071272 834.65609977 1506.15431328 821.4375 1526.1875 C820.74527344 1527.24582031 820.05304688 1528.30414062 819.33984375 1529.39453125 C797.61115339 1562.37969814 773.41881796 1593.55605633 747.79833984 1623.58837891 C746.38771698 1625.24599996 744.98462211 1626.90979828 743.58203125 1628.57421875 C736.75613522 1636.64386907 729.65156566 1644.40677526 722.39331055 1652.08813477 C720.98029749 1653.60486168 719.58256153 1655.13587029 718.19458008 1656.67553711 C710.29484758 1665.42406985 702.01116666 1673.76629214 693.66625977 1682.08911133 C691.2405337 1684.50944526 688.82024202 1686.9351222 686.40039062 1689.36132812 C684.83625825 1690.92480012 683.27181594 1692.48796212 681.70703125 1694.05078125 C680.99537308 1694.76446365 680.2837149 1695.47814606 679.55049133 1696.2134552 C675.56976873 1700.17585006 671.4961008 1703.96956523 667.234375 1707.6287384 C664.28464184 1710.18758683 661.46497201 1712.88331208 658.625 1715.5625 C653.57839056 1720.28946376 648.40415852 1724.76259143 643.00390625 1729.0859375 C640.46190637 1731.16751427 638.04220665 1733.3378838 635.625 1735.5625 C631.16820676 1739.62376167 626.50787032 1743.34163522 621.74633789 1747.03295898 C617.9459158 1749.98394135 614.2334942 1753.01263535 610.5625 1756.125 C604.11598689 1761.53257705 597.41081328 1766.55812813 590.64404297 1771.55615234 C588.34321073 1773.25721021 586.04837375 1774.96615023 583.75390625 1776.67578125 C573.79812831 1784.07549654 563.72248581 1791.2532909 553.4375 1798.1875 C552.84614258 1798.58855957 552.25478516 1798.98961914 551.64550781 1799.40283203 C535.2508886 1810.51574982 518.52487603 1821.17136143 501.4375 1831.1875 C500.3861084 1831.8067334 500.3861084 1831.8067334 499.31347656 1832.43847656 C486.50759244 1839.97036574 473.54122762 1847.18726044 460.4375 1854.1875 C459.42751953 1854.72745605 458.41753906 1855.26741211 457.37695312 1855.82373047 C381.07739303 1896.42752061 299.46777996 1925.85953234 69.4375 1966.1875 C68.61904602 1966.24808594 67.80059204 1966.30867188 66.95733643 1966.37109375 C-25.98058582 1973.12799719 -119.70642872 1965.36039606 -419.5625 1875.1875 C-420.2008075 1874.88672546 -420.83911499 1874.58595093 -421.49676514 1874.27606201 C-474.18011268 1849.43417211 -524.04688087 1819.84555943 -571.5625 1786.1875 C-572.34061035 1785.63658691 -573.1187207 1785.08567383 -573.92041016 1784.51806641 C-590.37891732 1772.8322803 -606.2147006 1760.40494837 -621.82275391 1747.61132812 C-623.38198327 1746.33523696 -624.946511 1745.06562619 -626.51171875 1743.796875 C-636.88894261 1735.37390205 -647.03692669 1726.69256995 -656.8671875 1717.63671875 C-658.98078685 1715.71610021 -661.11417217 1713.83243988 -663.27026367 1711.96044922 C-675.78745553 1701.01630148 -687.60265117 1689.3105337 -699.33862305 1677.54174805 C-701.65102723 1675.22391162 -703.96882898 1672.91156696 -706.28710938 1670.59960938 C-707.78677957 1669.09927936 -709.28614006 1667.5986397 -710.78515625 1666.09765625 C-711.46441666 1665.42042007 -712.14367706 1664.7431839 -712.84352112 1664.04542542 C-716.70904293 1660.16111606 -720.39927671 1656.17601389 -723.96974182 1652.01837158 C-726.69772873 1648.88255739 -729.57889939 1645.89123075 -732.4375 1642.875 C-737.24731909 1637.76072993 -741.83484286 1632.5544691 -746.21875 1627.06640625 C-749.10944485 1623.51566941 -752.11282657 1620.07268386 -755.125 1616.625 C-760.08979299 1610.92376507 -764.91447646 1605.151778 -769.5625 1599.1875 C-770.62105759 1597.83721123 -771.67965503 1596.48695371 -772.73828125 1595.13671875 C-784.76071025 1579.77073444 -796.413857 1564.19949269 -807.5625 1548.1875 C-808.00916016 1547.5490918 -808.45582031 1546.91068359 -808.91601562 1546.25292969 C-828.73355594 1517.90650721 -846.98010199 1488.53606228 -863.5625 1458.1875 C-864.14241699 1457.13062988 -864.72233398 1456.07375977 -865.31982422 1454.98486328 C-908.18582766 1376.73814748 -939.54072772 1293.12170698 -982.5625 1055.1875 C-982.62201843 1054.39561279 -982.68153687 1053.60372559 -982.74285889 1052.7878418 C-986.18056705 1006.55601395 -986.03668706 959.41123547 -982.5625 913.1875 C-982.5016925 912.36338623 -982.44088501 911.53927246 -982.37823486 910.69018555 C-977.99144767 851.76621819 -968.20025395 793.41541045 -953.5625 736.1875 C-953.36825439 735.42642944 -953.17400879 734.66535889 -952.97387695 733.88122559 C-932.51619377 654.05794112 -901.45082175 575.41487224 -860.17578125 503.99951172 C-858.52209749 501.11707685 -856.8978211 498.2198025 -855.28125 495.31640625 C-848.90132419 483.8693434 -842.25301541 472.67433355 -835.14990234 461.66210938 C-833.43430433 458.98765514 -831.74094427 456.29997049 -830.05078125 453.609375 C-824.31376963 444.49152728 -818.52218416 435.47496751 -812.1640625 426.77734375 C-810.20041703 424.08900137 -808.2907381 421.36794076 -806.3984375 418.62890625 C-797.80875891 406.19793422 -788.81855635 394.12935454 -779.5625 382.1875 C-779.03495117 381.50397461 -778.50740234 380.82044922 -777.96386719 380.11621094 C-772.21343968 372.67156324 -766.28162737 365.41390881 -760.171875 358.26171875 C-757.79980965 355.48016912 -755.48757288 352.65401339 -753.1875 349.8125 C-743.73130704 338.22320489 -733.76766309 327.14060684 -723.50024414 316.26879883 C-722.10056202 314.76542349 -720.71616944 313.24776328 -719.34155273 311.72143555 C-711.30235748 302.81397322 -702.8581589 294.33095843 -694.36401367 285.85864258 C-691.86586032 283.36588005 -689.37313802 280.86777525 -686.88085938 278.36914062 C-685.27115409 276.76009572 -683.66113885 275.15136082 -682.05078125 273.54296875 C-681.3172493 272.80741257 -680.58371735 272.07185638 -679.82795715 271.31401062 C-675.78674568 267.29087675 -671.65684895 263.43256997 -667.33032227 259.71720886 C-664.56578568 257.32503619 -661.91583639 254.81332647 -659.25 252.3125 C-654.37664451 247.77401476 -649.35946023 243.49401203 -644.1640625 239.32421875 C-641.61263271 237.22867506 -639.17923227 235.04786845 -636.75 232.8125 C-632.3747041 228.82994719 -627.81520734 225.1693193 -623.14379883 221.54638672 C-619.34728689 218.59967395 -615.60420985 215.59943977 -611.89331055 212.5456543 C-565.72334279 174.58265622 -514.28433225 142.19731177 -461.5625 114.1875 C-460.48436035 113.61418945 -459.4062207 113.04087891 -458.29541016 112.45019531 C-418.41163346 91.33091564 -377.20866687 72.80884887 -334.59320068 57.89978027 C-332.44153386 57.14507041 -330.29217068 56.38404506 -328.14306641 55.62207031 C-247.58655528 27.10594391 -163.41415453 9.38326518 -72.9375 2.4375 C-71.73432129 2.34847916 -71.73432129 2.34847916 -70.50683594 2.25765991 C-47.02145502 0.55490902 -23.54310085 -0.02069353 0 0 Z M-36.5625 4.1875 C-52.37896569 78.95163434 -68.16567691 153.72201162 -83.92578125 228.49804688 C-85.23394434 234.70475158 -86.54211876 240.91145389 -87.85029888 247.118155 C-88.4144315 249.79471949 -88.97855152 252.47128664 -89.5426712 255.14785385 C-94.7903347 280.04599791 -100.04299555 304.94308312 -105.29953068 329.83935565 C-106.68522102 336.40245285 -108.07059873 342.96561598 -109.45576477 349.52882385 C-109.65010701 350.44965557 -109.84444925 351.37048728 -110.04468066 352.31922299 C-111.01751504 356.92875697 -111.99031006 361.53829927 -112.9630785 366.14784718 C-114.82438854 374.96754431 -116.68629873 383.78711387 -118.54977417 392.60635376 C-125.68228642 426.36375517 -132.79144337 460.12578651 -139.76876998 493.91565847 C-140.2028877 496.0163632 -140.63797756 498.11686416 -141.07337379 500.21730423 C-159.05566286 587.01033994 -172.05962557 674.83385042 -189.5625 891.1875 C-189.61470703 892.30650696 -189.66691406 893.42551392 -189.72070312 894.57843018 C-193.10972985 967.96942515 -192.97320801 1041.80201162 -189.5625 1115.1875 C-189.45955142 1117.47688425 -189.35668697 1119.76627228 -189.25390625 1122.05566406 C-185.23183007 1210.16714776 -176.31090766 1297.99201494 -129.94140625 1559.5078125 C-129.53391931 1561.32435963 -129.53391931 1561.32435963 -129.1182003 1563.17760468 C-121.35547628 1597.75771663 -113.35327588 1632.28311647 -105.36900926 1666.81258947 C-103.10913977 1676.58624177 -100.85157827 1686.3604268 -98.59419751 1696.13465416 C-95.51722504 1709.45759906 -92.43989795 1722.78046197 -89.36148071 1736.10307312 C-89.00316782 1737.65376341 -89.00316782 1737.65376341 -88.63761628 1739.23578078 C-88.3981455 1740.27215081 -88.15867472 1741.30852085 -87.91194725 1742.37629604 C-79.02982073 1780.81600848 -70.15702238 1819.25787328 -61.28575993 1857.70009422 C-58.71641425 1868.83388772 -56.14671363 1879.96759916 -53.57646376 1891.10118395 C-51.82112221 1898.70484626 -50.06601874 1906.30856349 -48.31111044 1913.9123258 C-47.29882798 1918.29835381 -46.28642769 1922.68435453 -45.27371788 1927.07028389 C-44.34564962 1931.08965749 -43.41792256 1935.10910969 -42.49046171 1939.12862349 C-42.15547072 1940.58016429 -41.82035585 1942.0316765 -41.4851023 1943.48315668 C-39.81554344 1950.71180436 -38.15763138 1957.94203719 -36.5625 1965.1875 C-36.2325 1965.1875 -35.9025 1965.1875 -35.5625 1965.1875 C-35.35270508 1964.19161865 -35.14291016 1963.1957373 -34.92675781 1962.16967773 C-18.71350794 1885.52768105 3.51101834 1810.62690784 33.4375 1738.1875 C33.71337952 1737.51930237 33.98925903 1736.85110474 34.27349854 1736.16265869 C44.50032807 1711.44188492 55.75004999 1687.24840098 67.4375 1663.1875 C68.28900635 1661.43252197 68.28900635 1661.43252197 69.15771484 1659.64208984 C75.38659001 1646.86010772 82.06617215 1634.35451586 88.94335938 1621.91113281 C90.40320577 1619.25001412 91.83841745 1616.57718102 93.265625 1613.8984375 C100.87156678 1599.67062167 109.16509003 1585.92226901 117.60644531 1572.18164062 C119.43380331 1569.19354482 121.2310047 1566.18987074 123.01123047 1563.17358398 C134.04520061 1544.49756786 146.10290417 1526.47190654 158.61816406 1508.76367188 C160.29155341 1506.39415974 161.95621952 1504.0188531 163.6171875 1501.640625 C178.65713916 1480.14583246 194.41091025 1459.18947951 211.04052734 1438.90039062 C212.90264231 1436.61716821 214.7333723 1434.30969282 216.5625 1432 C220.05634107 1427.61614889 223.66821902 1423.33997864 227.3034668 1419.07348633 C230.2143079 1415.65248229 233.06127394 1412.18936558 235.875 1408.6875 C240.25084245 1403.30607796 244.93058815 1398.24751431 249.66015625 1393.1796875 C251.81827719 1390.86509738 253.9292381 1388.51854254 256 1386.125 C260.17886662 1381.30323082 264.50411725 1376.616943 268.83151245 1371.92892456 C269.86129833 1370.81229422 270.88998375 1369.69464741 271.91726685 1368.57571411 C281.45330799 1358.19535133 291.31045929 1348.15887654 301.28955078 1338.20507812 C303.83353328 1335.6665115 306.37205128 1333.1225667 308.91015625 1330.578125 C310.5517624 1328.93717888 312.19367831 1327.29654256 313.8359375 1325.65625 C314.95492935 1324.5342218 314.95492935 1324.5342218 316.0965271 1323.38952637 C320.17367364 1319.33035448 324.34446612 1315.4462361 328.7019043 1311.68951416 C330.7065806 1309.95463306 332.63854338 1308.15632776 334.55078125 1306.3203125 C335.23567627 1305.66699951 335.92057129 1305.01368652 336.6262207 1304.34057617 C337.32706787 1303.67131104 338.02791504 1303.0020459 338.75 1302.3125 C344.27985211 1297.06576864 349.86262515 1292.06542632 355.83203125 1287.32421875 C358.80450559 1284.8865224 361.62519883 1282.30558644 364.4375 1279.6875 C369.01532889 1275.4333041 373.72720581 1271.4162124 378.59765625 1267.49609375 C381.15573093 1265.41655849 383.66897026 1263.29682573 386.17285156 1261.15307617 C391.94024847 1256.21781262 397.83258565 1251.49415861 403.87890625 1246.90234375 C406.46631635 1244.93667459 409.03257424 1242.94613229 411.58984375 1240.94140625 C421.64548195 1233.05890752 431.82753707 1225.37741739 442.15527344 1217.85498047 C444.26971504 1216.31008999 446.37431418 1214.75282505 448.4765625 1213.19140625 C463.7229089 1201.94047615 479.62031614 1191.61076991 495.4375 1181.1875 C496.8304126 1180.26928467 496.8304126 1180.26928467 498.25146484 1179.33251953 C502.95356894 1176.24167367 507.67972327 1173.19192879 512.4375 1170.1875 C513.20787598 1169.70087891 513.97825195 1169.21425781 514.77197266 1168.71289062 C546.15208279 1148.95845179 578.5338039 1130.92777116 611.58209229 1114.13146973 C613.44570016 1113.18332803 615.3077242 1112.23213674 617.16943359 1111.28027344 C689.33577956 1074.41891491 765.72093111 1047.09556547 870.09481239 1016.89918137 C882.12114418 1013.43895704 894.13946285 1009.95194456 906.15234375 1006.4453125 C907.3703728 1006.08977673 907.3703728 1006.08977673 908.6130085 1005.72705841 C914.99110045 1003.86506054 921.36874185 1002.00152162 927.74632645 1000.13778687 C932.85153601 998.6459231 937.95688147 997.15452612 943.0625 995.6640625 C943.74117064 995.46592705 944.41984127 995.2677916 945.11907768 995.06365204 C956.54635253 991.72860336 967.98545925 988.43647914 979.4375 985.1875 C979.4375 984.5275 979.4375 983.8675 979.4375 983.1875 C978.6232103 982.94012085 977.80892059 982.6927417 976.96995544 982.43786621 C975.80480911 982.08389771 974.63966278 981.7299292 973.43920898 981.36523438 C972.79391424 981.16919554 972.1486195 980.9731567 971.48377037 980.77117729 C967.7452579 979.63542697 964.0067458 978.49967545 960.26823425 977.36392212 C952.47127061 974.99521941 944.67430421 972.62652576 936.87732697 970.25786781 C932.29972673 968.86722985 927.7221285 967.4765853 923.14453125 966.0859375 C922.21380547 965.80318844 921.28307968 965.52043938 920.32415009 965.22912216 C907.35618534 961.28951709 894.3883174 957.34959349 881.4205265 953.4094162 C876.16521099 951.81263807 870.90987585 950.21592451 865.65454006 948.6192131 C860.70141549 947.11431362 855.74832043 945.60931708 850.79525375 944.10422707 C848.44768004 943.39090044 846.10007833 942.67766605 843.75247192 941.96444702 C840.72255678 941.04392921 837.69276439 940.12300891 834.66305542 939.20181274 C827.26872177 936.95418428 819.87220622 934.71414096 812.47143555 932.48779297 C798.24870358 928.20662124 784.0377063 923.92412317 770 919.0625 C769.23643188 918.7994809 768.47286377 918.53646179 767.68615723 918.26547241 C724.32019581 903.29624606 681.86361098 885.90163713 640.4375 866.1875 C639.28572266 865.64174316 638.13394531 865.09598633 636.94726562 864.53369141 C613.79000247 853.54988827 591.01819604 841.95403582 568.765625 829.22265625 C564.82101769 826.96608819 560.852055 824.76281769 556.86083984 822.59008789 C498.56087186 790.75639036 443.30572142 751.55372828 392.0703125 709.35546875 C390.32020474 707.91435627 388.56500388 706.47940597 386.8046875 705.05078125 C380.45867766 699.89811728 374.23005804 694.62184481 368.0390625 689.28515625 C365.68967024 687.26005881 363.3307486 685.2472527 360.9609375 683.24609375 C353.40867105 676.8543209 346.1187275 670.23396728 338.91796875 663.44921875 C335.9862465 660.68971625 333.0080559 657.98888664 330 655.3125 C326.40090145 652.10008146 322.96597102 648.77692848 319.6171875 645.3046875 C317.80552756 643.5449748 315.96352051 641.92116304 314.04296875 640.28515625 C308.32663472 635.31672908 303.02607672 629.92533613 297.68286133 624.56323242 C295.87887915 622.75389067 294.06961335 620.94995681 292.25976562 619.14648438 C286.93681832 613.82628468 281.68811337 608.50621686 276.80493164 602.77319336 C274.9570073 600.63031376 272.9676054 598.65700524 270.9375 596.6875 C267.60980537 593.39895472 264.48413559 590.02368376 261.44140625 586.47265625 C259.38069219 584.12271916 257.26275813 581.83716874 255.12963867 579.55322266 C250.08242597 574.14824678 245.28092492 568.63689205 240.6484375 562.8671875 C238.3281505 560.05496685 235.90678866 557.36952737 233.4375 554.6875 C228.5438174 549.3578211 223.97542156 543.82053512 219.4375 538.1875 C218.40455767 536.92243201 217.37064342 535.6581572 216.3359375 534.39453125 C210.01614283 526.66836501 203.80865559 518.87891598 197.76806641 510.93164062 C196.31493303 509.02683607 194.8514966 507.1302382 193.38671875 505.234375 C186.23086892 495.95602733 179.28173349 486.54802089 172.47119141 477.01367188 C170.84767402 474.75750894 169.21317874 472.51069621 167.57177734 470.26757812 C159.75603649 459.56124428 152.31084871 448.65948825 145.0625 437.5625 C144.52157715 436.73678497 143.9806543 435.91106995 143.42333984 435.06033325 C97.49947526 364.95238533 58.31117278 290.97455956 -35.5625 4.1875 C-35.8925 4.1875 -36.2225 4.1875 -36.5625 4.1875 Z " fill="#FF851A" transform="translate(1000.5625,15.8125)"/>
</svg>
